:SAMPLES-PER-SECOND 30
:FULLY-SPECIFIED
:DEGREES
305
root  5.02944 36.3292 -0.859774 115.275 -89.3131 -108.979
RightUpLeg  -26.2707 -11.9531 -19.9658
RightLeg  21.6135 0.128059 -0.157811
RightFoot  4.4982 -3.56752 25.478
RightToes  -2.32832e-010 0 -3.6325e-017
Spine  28.0191 2.89872 -1.34645
Spine1  -13.7766 2.7467 1.22181
HEad  -26.5262 -1.00485 -3.66977
LeftShoulder1  0.119392 2.65235 -6.34915
LeftArm  -35.4372 4.38471 -12.6972
LeftForeArm  -73.6212 -8.63378 -0.0581396
LeftHand  0.912537 -1.71499 -14.7365
RightShoulder  0.36535 -1.31111 9.41297
RightArm  -35.3606 2.55943 18.7577
RightForeArm  -79.4821 -0.0419612 -2.75243
RightHand  0.0523263 -4.26742 8.49881
LeftUpLeg  -16.7795 13.9402 26.0761
LeftLeg  18.1293 5.56847 2.59667
LeftFoot  1.64186 3.65879 -31.4872
LeftToes  2.2737e-010 4.38529e-011 2.18788e-011
306
root  5.2846 35.9716 -1.12419 62.3931 -80.7168 -56.4023
RightUpLeg  -25.5754 -14.2581 -11.6797
RightLeg  22.1698 0.0774867 -0.183149
RightFoot  3.85082 -3.51614 26.1426
RightToes  -2.32832e-010 0 -3.6325e-017
Spine  29.4507 2.90651 0.899405
Spine1  -14.33 2.44674 12.5927
HEad  -26.9462 0.727709 -5.82814
LeftShoulder1  0.246776 1.77513 -6.58207
LeftArm  -33.859 8.01499 -15.2842
LeftForeArm  -74.5304 -7.42697 0.0015922
LeftHand  0.833495 -1.2284 -14.4851
RightShoulder  0.34726 -1.37649 9.01099
RightArm  -34.5552 7.13087 18.1705
RightForeArm  -80.3711 -2.31946 -2.44104
RightHand  0.0410524 -4.39554 8.35158
LeftUpLeg  -21.6861 11.6698 34.8672
LeftLeg  23.7603 4.69628 2.5706
LeftFoot  0.49023 3.21098 -30.3601
LeftToes  2.2737e-010 4.38529e-011 2.18788e-011
307
root  5.5252 35.7123 -1.21847 67.1789 -75.3051 -62.1884
RightUpLeg  -24.0188 -16.5701 -6.63935
RightLeg  21.8295 0.585078 0.0394587
RightFoot  3.51978 -3.57146 27.093
RightToes  -2.32832e-010 0 -3.6325e-017
Spine  30.6436 2.85994 2.63207
Spine1  -12.2576 2.08745 19.8008
HEad  -29.5623 1.41977 -7.10662
LeftShoulder1  0.273856 1.63265 -7.01052
LeftArm  -33.6071 8.36711 -17.8805
LeftForeArm  -75.1042 -5.16722 0.315914
LeftHand  0.668399 -0.525405 -13.0946
RightShoulder  0.281798 -1.72005 8.46077
RightArm  -35.9007 10.7917 18.1035
RightForeArm  -79.5836 -2.35219 -2.5945
RightHand  0.0377784 -4.3285 7.42645
LeftUpLeg  -24.2734 9.31425 40.5959
LeftLeg  26.4766 4.24851 2.6355
LeftFoot  0.0102978 3.04061 -29.9609
LeftToes  2.2737e-010 4.38529e-011 2.18788e-011
308
root  5.75876 35.6402 -1.07821 66.0752 -75.3595 -61.1475
RightUpLeg  -24.0705 -16.5786 -7.18313
RightLeg  21.5482 0.368177 -0.0578628
RightFoot  3.90206 -3.76024 27.7871
RightToes  -2.32832e-010 0 -3.6325e-017
Spine  30.7546 3.03733 2.38707
Spine1  -8.97674 1.66761 20.5774
HEad  -33.2085 1.13873 -6.91205
LeftShoulder1  0.268772 1.78481 -8.07709
LeftArm  -33.8188 6.04129 -19.2678
LeftForeArm  -75.7971 -3.46065 0.498694
LeftHand  0.545159 -0.161879 -11.4445
RightShoulder  0.288374 -1.65153 8.19085
RightArm  -38.7314 11.3573 19.4288
RightForeArm  -76.036 -0.393333 -3.08041
RightHand  0.0702091 -3.68638 6.4478
LeftUpLeg  -24.9951 8.44938 40.3015
LeftLeg  27.0773 4.54235 2.85226
LeftFoot  -0.262367 3.02148 -30.4672
LeftToes  2.2737e-010 4.38529e-011 2.18788e-011
309
root  5.96861 35.7266 -0.694898 63.192 -80.145 -57.0202
RightUpLeg  -25.9715 -13.6627 -12.5418
RightLeg  21.3004 -1.43968 -0.832614
RightFoot  5.07384 -4.01563 27.5922
RightToes  -2.32832e-010 0 -3.6325e-017
Spine  30.2949 2.74754 1.62714
Spine1  -7.39214 1.64615 14.2183
HEad  -35.5481 -0.168721 -5.41781
LeftShoulder1  0.379387 1.19412 -8.98069
LeftArm  -33.7787 2.88837 -19.1716
LeftForeArm  -75.8812 -2.74847 0.335477
LeftHand  0.519624 -0.265351 -10.6857
RightShoulder  0.397165 -1.05312 8.83429
RightArm  -40.5281 8.3054 22.2209
RightForeArm  -72.0879 3.18576 -3.00548
RightHand  0.145626 -2.53406 6.57881
LeftUpLeg  -24.9534 10.9029 34.3973
LeftLeg  26.5676 4.06824 2.54905
LeftFoot  -0.433187 3.02136 -30.9112
LeftToes  2.2737e-010 4.38529e-011 2.18788e-011
